<svg width="44" height="44" viewBox="0 0 44 44" fill="none" xmlns="http://www.w3.org/2000/svg">
<rect y="8" width="44" height="28" rx="4" fill="white"/>
<rect x="0.5" y="8.5" width="43" height="27" rx="3.5" stroke="black" stroke-opacity="0.08"/>
<g clip-path="url(#clip0_1951_123)">
<path d="M30.4636 18.5531C30.4516 18.1995 30.1487 17.9199 29.7808 17.9199H29.0017C28.7444 17.9199 28.5064 18.0609 28.3909 18.2827L26.6308 21.7076L24.8226 18.2689C24.7048 18.054 24.4715 17.9199 24.2191 17.9199H23.4352C23.0649 17.9199 22.7619 18.2019 22.7523 18.5578L22.5696 24.7535C22.5599 25.1232 22.8677 25.4283 23.2524 25.4283H23.2765C23.6468 25.4283 23.9498 25.144 23.9594 24.7858L24.0435 21.3309C24.0532 20.9589 24.0652 20.2887 24.0532 20.0969H24.0748C24.207 20.4366 24.5076 20.9912 24.6952 21.3517L25.8061 23.3022C26.0778 23.7782 26.7871 23.7829 27.0636 23.3091L28.2154 21.1715C28.403 20.8202 28.7011 20.2147 28.8358 19.9166H28.8574C28.8574 20.2679 28.8791 20.8941 28.8911 21.3425L28.9945 24.7881C29.0041 25.144 29.3071 25.426 29.6774 25.426H30.0092C30.3963 25.426 30.7065 25.1186 30.6921 24.7465L30.4636 18.5531Z" fill="#101010"/>
<path d="M35.5148 25.6315C32.9804 25.6315 31.6074 23.7689 31.6074 21.451C31.6074 19.1747 33.3219 17.7164 35.6254 17.7164C37.9722 17.7164 39.6001 19.0036 39.6001 21.3447C39.6001 23.718 38.0492 25.6315 35.5148 25.6315ZM35.6038 18.7725C33.9759 18.7725 33.4445 20.1984 33.4445 21.5157C33.4445 22.8237 33.9422 24.58 35.6254 24.58C37.2533 24.58 37.7606 22.7497 37.7606 21.5064C37.7606 20.2285 37.1859 18.7725 35.6038 18.7725Z" fill="#101010"/>
<path d="M20.494 17.9108H20.0708C19.6981 17.9108 19.3951 18.2019 19.3951 18.5625V22.4357C19.3951 23.5634 18.8421 24.1804 17.7889 24.2336C16.7333 24.1804 16.1827 23.5657 16.1827 22.4357V18.5625C16.1827 18.2043 15.8797 17.9108 15.5046 17.9108H15.0814C14.7087 17.9108 14.4033 18.2019 14.4033 18.5625V22.4357C14.4033 22.8424 14.4514 23.2514 14.5716 23.642C14.675 23.9748 14.8337 24.2937 15.055 24.571C15.2641 24.8298 15.5238 25.0447 15.8196 25.2042C16.1322 25.3729 16.476 25.5023 16.8295 25.5509C17.3513 25.6225 17.6278 25.6109 17.9284 25.6109C18.5031 25.6086 18.8902 25.567 19.436 25.3637C19.4697 25.3521 19.5009 25.3382 19.5322 25.3244C19.8448 25.1926 20.1309 25.0055 20.3666 24.7651C20.6094 24.5155 20.7922 24.2174 20.9196 23.8985C21.0663 23.5264 21.1384 23.1313 21.1625 22.7361C21.1673 22.6367 21.1721 22.535 21.1721 22.4357V18.5625C21.1697 18.2019 20.8667 17.9108 20.494 17.9108Z" fill="#101010"/>
<path d="M5.1412 20.804C4.79254 22.3108 5.54756 24.8667 7.02395 25.7426C7.0504 25.7587 7.10089 25.7842 7.06483 25.8396C6.12946 25.6617 5.22776 24.4692 4.78773 22.8123C4.69636 22.8307 4.66269 22.8885 4.62663 22.944C4.29961 23.457 4.35011 23.9885 4.60499 24.49C5.15803 25.5739 6.04049 26.1424 7.17544 26.2602C7.47841 26.2926 7.78859 26.2972 8.08195 26.1701C8.17091 26.1308 8.28152 26.0869 8.29114 25.9829C8.30557 25.8327 8.15408 25.8697 8.07954 25.8443C7.3702 25.6016 6.85563 25.1117 6.49976 24.4207C6.05252 23.5541 5.72069 22.3431 5.7279 21.3656C5.73512 20.4435 5.79523 19.9466 6.08618 19.4706C5.63172 19.7779 5.26864 20.2517 5.1412 20.804Z" fill="url(#paint0_linear_1951_123)"/>
<path d="M10.8259 18.3822C11.189 18.3683 11.1842 18.6988 11.1145 20.5568V20.8133C10.1911 20.8133 8.59934 20.8087 7.73371 20.8064V20.8041C7.73371 19.228 8.01023 18.5208 8.14008 18.0864C7.71447 18.1488 7.07487 18.3383 6.7214 19.0477C6.28137 19.9328 6.18519 21.2686 6.35591 22.3386C6.51461 23.3415 7.06044 25.1372 8.35168 25.5485C8.44064 25.5762 8.51759 25.4861 8.4719 25.4099C8.23385 25.0239 7.7818 24.021 7.7265 21.9549C8.45747 21.9688 10.4268 21.9965 11.1145 21.9919V22.1676V24.8321C11.1145 25.1325 11.367 25.3752 11.6796 25.3752H12.336C12.6486 25.3752 12.9011 25.1302 12.9011 24.8321V19.3875C12.9443 18.4122 12.2999 17.9038 11.6892 17.9038C11.3501 17.9038 11.0207 18.061 10.8259 18.3822Z" fill="url(#paint1_linear_1951_123)"/>
</g>
<defs>
<linearGradient id="paint0_linear_1951_123" x1="1.9304" y1="18.7041" x2="8.44584" y2="25.7283" gradientUnits="userSpaceOnUse">
<stop stop-color="#A58C30"/>
<stop offset="0.2783" stop-color="#A58C30"/>
<stop offset="0.5912" stop-color="#FFECA6"/>
<stop offset="0.8284" stop-color="#BFA64B"/>
<stop offset="1" stop-color="#BFA64B"/>
</linearGradient>
<linearGradient id="paint1_linear_1951_123" x1="4.59473" y1="16.2332" x2="11.1101" y2="23.2574" gradientUnits="userSpaceOnUse">
<stop stop-color="#A58C30"/>
<stop offset="0.2783" stop-color="#A58C30"/>
<stop offset="0.5912" stop-color="#FFECA6"/>
<stop offset="0.8284" stop-color="#BFA64B"/>
<stop offset="1" stop-color="#BFA64B"/>
</linearGradient>
<clipPath id="clip0_1951_123">
<rect width="35.2" height="8.56216" fill="white" transform="translate(4.40039 17.7189)"/>
</clipPath>
</defs>
</svg>
