<svg width="44" height="44" viewBox="0 0 44 44" fill="none" xmlns="http://www.w3.org/2000/svg">
<rect y="8" width="44" height="28" rx="4" fill="white"/>
<rect x="0.5" y="8.5" width="43" height="27" rx="3.5" stroke="black" stroke-opacity="0.08"/>
<path d="M26.041 14.3374C26.041 14.325 26.041 14.3122 26.0414 14.2998H28.4332C28.6242 14.2998 28.779 14.4489 28.779 14.6333L28.7829 16.9565C28.7732 16.9569 28.7634 16.9569 28.7537 16.9569C27.2581 16.9569 26.041 15.7816 26.041 14.3374Z" fill="#F4821F"/>
<path d="M28.7881 20.3471H24.1535L24.1445 14.6341C24.1445 14.4497 24.2993 14.2998 24.4903 14.2998H25.1076C25.1072 14.3122 25.1072 14.325 25.1072 14.3374C25.1072 16.2789 26.7429 17.8583 28.7535 17.8583C28.7636 17.8583 28.7737 17.8583 28.7838 17.858L28.7881 20.3471Z" fill="#203E7A"/>
<path d="M28.7934 23.136C28.7989 26.7558 25.7645 29.6945 22.016 29.6998C18.2675 29.7051 15.2241 26.7749 15.2187 23.1552L15.2051 14.6341C15.2051 14.4497 15.3599 14.2998 15.5509 14.2998H19.4993C19.6903 14.2998 19.8451 14.4489 19.8451 14.6333L19.8587 23.5225C19.8607 24.6693 20.8246 25.5974 22.0121 25.5959C23.1996 25.594 24.1608 24.6632 24.1592 23.5165L24.1557 21.2486H28.7903L28.7934 23.136Z" fill="#203E7A"/>
</svg>
