<svg width="44" height="44" viewBox="0 0 44 44" fill="none" xmlns="http://www.w3.org/2000/svg">
<rect y="8" width="44" height="28" rx="4" fill="white"/>
<rect x="0.5" y="8.5" width="43" height="27" rx="3.5" stroke="black" stroke-opacity="0.08"/>
<path d="M21.2288 17.2247L19.1806 26.7996H16.7034L18.7516 17.2247H21.2288ZM31.6499 23.4073L32.9543 19.8116L33.7036 23.4073H31.6499ZM34.4151 26.7996H36.7054L34.7044 17.2247H32.5912C32.1146 17.2247 31.7141 17.5013 31.5364 17.9267L27.8193 26.7996H30.4207L30.9366 25.3694H34.1148L34.4151 26.7996ZM27.9485 23.6735C27.9589 21.1469 24.455 21.0068 24.4779 19.8778C24.4863 19.5346 24.8132 19.1692 25.5288 19.0758C25.8833 19.03 26.8626 18.9934 27.9718 19.5045L28.4057 17.4729C27.8097 17.2574 27.0428 17.05 26.0888 17.05C23.6399 17.05 21.9172 18.3506 21.9035 20.2146C21.8875 21.5934 23.134 22.3619 24.0713 22.8211C25.0369 23.2901 25.3607 23.5915 25.3562 24.0106C25.3493 24.653 24.5851 24.9374 23.8746 24.948C22.6288 24.9677 21.9065 24.6113 21.3304 24.3429L20.8808 26.4418C21.4604 26.7074 22.5285 26.9382 23.6348 26.95C26.2382 26.95 27.9409 25.6642 27.9485 23.6735ZM17.6889 17.2247L13.6755 26.7996H11.057L9.08178 19.158C8.96218 18.6885 8.85805 18.5156 8.49358 18.3172C7.89795 17.9936 6.91438 17.691 6.0498 17.5027L6.10813 17.2247H10.3237C10.8602 17.2247 11.3433 17.582 11.4661 18.2005L12.5097 23.7416L15.0862 17.2247H17.6889Z" fill="#1434CB"/>
</svg>
